<?xml version="1.0" encoding="UTF-8"?>
<svg id="Layer_1" data-name="Layer 1" xmlns="http://www.w3.org/2000/svg" xmlns:xlink="http://www.w3.org/1999/xlink" viewBox="0 0 393.05 264.32">
  <defs>
    <style>
      .cls-1 {
        fill: none;
      }

      .cls-1, .cls-2, .cls-3 {
        stroke-width: 0px;
      }

      .cls-4 {
        clip-path: url(#clippath-1);
      }

      .cls-2 {
        fill: #fff;
      }

      .cls-3 {
        fill: #231f20;
      }

      .cls-5 {
        clip-path: url(#clippath);
      }
    </style>
    <clipPath id="clippath">
      <polygon class="cls-1" points="18.31 35.99 208.94 61.67 181.64 264.32 0 258.08 18.31 35.99"/>
    </clipPath>
    <clipPath id="clippath-1">
      <rect class="cls-1" x="187.9" y="11.93" width="192.36" height="204.48" transform="translate(17.79 -36.91) rotate(7.67)"/>
    </clipPath>
  </defs>
  <g class="cls-5">
    <path class="cls-3" d="m288.78,119.54s-4.54,50.31-53.82,122.16c0,0-.18-.08-.14-.27,2.5-12.03-.11-10.87,6.38-32.14,3.17-10.4,9.66-23.19,21.34-49.11,21.28-47.23,17.17-74.75-32.39-59.65-49.56,15.09-15.81,100.22-108.31,108.89-46.44,4.35-75.62-50.52-86.21-101.34-9.97-47.84,10.83-86.88,80.12-16.33l10.65,10.54,35.36,35.02s-3.77.34-10.76-.64c-7.8-1.09-28.16-23.23-45-37.01-15.45-12.64-33.25-27.64-49.74-30.42-27.1-4.58,11.58,173.11,98.29,109.83,1.18-.86,15.81-11.33,28.65-42.75,16.42-40.18,29.84-63.47,83.26-54.68.43.07,24.71,4.64,22.32,37.91Z"/>
    <g>
      <path class="cls-2" d="m288.78,119.54c-.44,1.25,5.65-34.59-42.15-27.22-.71.11-28.98,5.09-49.83,59.55-23.28,60.8-96.44,72.66-124.08,18.15,0,0-27.53-43.04-27.34-90.48.19-47.44,73.18-.89,81.02,22.74,0,0-41.47-34.98-58.21-36.71-12.42-1.29-22.21.4-13.35,41.6,0,0,15.58,64.87,44.6,82.73,29.03,17.86,74.71,7.94,95.32-46.44,19-50.12,42.87-63.83,78.53-55.68,6.29,1.44,11.67,6.15,13.57,12.31,1.51,4.9,2.92,12.42,1.94,19.45Z"/>
      <path class="cls-2" d="m234.67,243.83s.33-1.67,2.58-3.8c7.58-7.16-3.06-17.01,8.57-44.55,0,0,4.4-17.62-2.82,6.41-6.6,21.96-9.36,34.7-8.33,41.94Z"/>
      <path class="cls-2" d="m88.88,118.86c2.8,5.29,20.6,40.65,34.42,15.44,0,0-7.54,2.28-17.94-2.36-5.04-2.25-21.17-21.94-16.48-13.08Z"/>
    </g>
  </g>
  <g class="cls-4">
    <path class="cls-3" d="m95.27,144.78s4.54-50.31,53.82-122.16c0,0,.18.08.14.27-2.5,12.03.11,10.87-6.38,32.14-3.17,10.4-9.66,23.19-21.34,49.11-21.28,47.23-17.17,74.75,32.39,59.65,49.56-15.09,15.81-100.22,108.31-108.89,46.44-4.35,75.62,50.52,86.21,101.34,9.97,47.84-10.83,86.88-80.12,16.33l-10.65-10.54-35.36-35.02s3.77-.34,10.76.64c7.8,1.09,28.16,23.23,45,37.01,15.45,12.64,33.25,27.64,49.74,30.42,27.1,4.58-11.58-173.11-98.29-109.83-1.18.86-15.81,11.33-28.65,42.75-16.42,40.18-29.84,63.47-83.26,54.68-.43-.07-24.71-4.64-22.32-37.91Z"/>
    <g>
      <path class="cls-2" d="m95.27,144.78c.44-1.25-5.65,34.59,42.15,27.22.71-.11,28.98-5.09,49.83-59.55,23.28-60.8,96.44-72.66,124.08-18.15,0,0,27.53,43.04,27.34,90.48-.19,47.44-73.18.89-81.02-22.74,0,0,41.47,34.98,58.21,36.71,12.42,1.29,22.21-.4,13.35-41.6,0,0-15.58-64.87-44.6-82.73-29.03-17.86-74.71-7.94-95.32,46.44-19,50.12-42.87,63.83-78.53,55.68-6.29-1.44-11.67-6.15-13.57-12.31-1.51-4.9-2.92-12.42-1.94-19.45Z"/>
      <path class="cls-2" d="m149.38,20.49s-.33,1.67-2.58,3.8c-7.58,7.16,3.06,17.01-8.57,44.55,0,0-4.4,17.62,2.82-6.41,6.6-21.96,9.36-34.7,8.33-41.94Z"/>
      <path class="cls-2" d="m295.17,145.46c-2.8-5.29-20.6-40.65-34.42-15.44,0,0,7.54-2.28,17.94,2.36,5.04,2.25,21.17,21.94,16.48,13.08Z"/>
    </g>
  </g>
</svg>